<svg width="358" height="124" viewBox="0 0 358 124" fill="none" xmlns="http://www.w3.org/2000/svg">
<path d="M315.474 120.713C318.184 122.203 321.874 122.963 326.474 122.963C338.998 122.963 349.969 112.218 354.574 101.495C355.786 98.6708 357.502 95.6173 357.502 92.5C357.502 90.0796 355.375 88.9002 353.074 88.7557C350.527 88.5957 348.868 90.1133 348.074 92.4948L347.074 95.4948C346.878 96.0806 346.817 96.4272 346.574 96.9948C342.972 105.399 336.404 112.833 326.454 112.833C324.743 112.929 323.034 112.635 321.454 111.973C320.49 111.513 319.624 110.871 318.904 110.083L318.854 110.023C317.772 108.401 316.996 106.595 316.564 104.693C315.824 102.143 315.684 98.3933 316.134 93.2233C316.891 86.5134 318.229 79.8818 320.134 73.4034C323.151 63.0521 326.767 52.885 330.964 42.9534V42.8734C331.31 42.2984 331.493 41.6397 331.493 40.9684C331.493 40.297 331.31 39.6383 330.964 39.0634C330.153 37.7253 328.879 36.7323 327.384 36.2734C325.899 35.8344 324.308 35.9263 322.884 36.5334C322.201 36.7944 321.581 37.1966 321.064 37.7135C320.547 38.2304 320.145 38.8505 319.884 39.5334C312.424 57.4234 307.574 72.3433 305.574 83.8933C302.584 98.7633 303.864 109.563 309.374 115.983C311.084 117.937 313.156 119.543 315.474 120.713Z" fill="#5DBCAF"/>
<path d="M286.048 96.4658C286.291 95.8983 286.353 95.5516 286.548 94.9658L287.548 91.9658C288.342 89.5843 290.001 88.0667 292.548 88.2267C294.849 88.3712 296.976 89.5507 296.976 91.971C296.976 95.0883 295.261 98.1418 294.048 100.966C285.576 120.696 256.023 132.543 241.34 112.57C238.79 108.98 237.34 104.09 236.92 98.0498C235.31 99.8998 233.78 101.58 232.26 103.16C227.52 108.137 222.29 112.623 216.65 116.55C209.65 120.96 202.99 123.19 196.9 123.19C192.3 123.19 188.61 122.43 185.9 120.94C183.582 119.77 181.511 118.164 179.8 116.21C174.29 109.79 173.01 98.9898 176 84.1198C178 72.5698 182.85 57.6501 190.31 39.7601C190.571 39.0772 190.973 38.4571 191.49 37.9402C192.007 37.4233 192.627 37.0212 193.31 36.7601C194.734 36.153 196.325 36.0611 197.81 36.5001C199.305 36.959 200.58 37.9521 201.39 39.2901C201.737 39.8651 201.92 40.5237 201.92 41.1951C201.92 41.8664 201.737 42.5251 201.39 43.1001V43.1801C197.193 53.1117 193.577 63.2786 190.56 73.6299C188.656 80.1083 187.317 86.7399 186.56 93.4498C186.11 98.6198 186.25 102.37 186.99 104.92C187.422 106.821 188.198 108.628 189.28 110.25L189.33 110.31C190.051 111.098 190.916 111.74 191.88 112.2C193.46 112.862 195.17 113.156 196.88 113.06C200.38 113.06 204.33 111.66 208.96 108.77C214.076 105.416 218.752 101.435 222.88 96.9198C224.95 94.7498 226.88 92.5598 228.5 90.4298C229.89 88.6298 230.85 87.5098 231.5 86.6898C232.15 85.8698 232.5 85.5098 232.92 84.9398C247.147 65.7545 253.329 38.2787 282 36.0001C286.833 35.616 292.454 37.7833 296 40.5001C298.872 42.7005 302.129 46.0882 300 50.0001C299.607 50.7219 298.708 51.2421 298.5 51.5001C298.281 51.6645 297.622 52.3697 297 52.5001C293.195 53.2976 290.791 50.5072 288 48.5001C272.683 37.4858 249.151 74.091 247.328 87.7213C246.512 93.8229 247.052 101.542 250.46 106.93C259.86 121.622 281.18 107.823 286.048 96.4658Z" fill="#5DBCAF"/>
<path d="M333.915 21.3671C333.228 21.46 332.53 21.4163 331.86 21.2386H331.91C331.242 21.0621 330.614 20.7553 330.065 20.3357C329.515 19.9161 329.054 19.3921 328.707 18.7937C328.36 18.1953 328.135 17.5343 328.045 16.8487C327.955 16.1631 328.001 15.4664 328.18 14.7986C329.353 10.3914 331.252 6.21066 333.8 2.42858C334.179 1.83644 334.673 1.32614 335.252 0.927729C335.832 0.529322 336.485 0.250863 337.173 0.10876C337.862 -0.0333442 338.572 -0.0362237 339.262 0.100291C339.952 0.236806 340.607 0.509955 341.19 0.903651C341.772 1.29735 342.27 1.80363 342.654 2.39268C343.038 2.98173 343.3 3.64165 343.425 4.33355C343.55 5.02546 343.535 5.73538 343.381 6.42149C343.228 7.1076 342.938 7.75603 342.53 8.32859C341.694 9.5699 340.949 10.8699 340.3 12.2186C339.471 13.9059 338.802 15.6668 338.3 17.4786C338.126 18.1493 337.821 18.7788 337.402 19.3311C336.984 19.8835 336.46 20.3477 335.862 20.697C335.263 21.0464 334.602 21.2741 333.915 21.3671Z" fill="#F8E14B"/>
<path d="M77.4522 49.2088C76.7612 49.2809 76.067 49.3176 75.3722 49.3188C74.6839 49.315 73.9963 49.2749 73.3122 49.1988H72.9222V49.5888C73.3966 56.1489 72.6852 62.7406 70.8222 69.0485C67.6706 79.3453 62.7061 88.9967 56.1622 97.5485C51.2745 104.073 45.5601 109.936 39.1622 114.989C32.5322 119.989 26.3122 122.469 20.7022 122.469C16.4322 122.469 13.0022 121.709 10.5122 120.209C8.35355 119.014 6.44808 117.411 4.90224 115.489C-0.0977592 109.119 -1.30776 98.3885 1.43224 83.6085C3.30224 72.0785 7.74224 57.1788 14.6222 39.2988C14.8502 38.6574 15.2087 38.0702 15.6751 37.5745C16.1416 37.0788 16.7059 36.6852 17.3322 36.4188C18.0979 36.0672 18.9297 35.8831 19.7722 35.8788C20.3715 35.8818 20.9674 35.9693 21.5422 36.1388C22.8982 36.6854 24.0343 37.6667 24.7722 38.9288C25.1095 39.4449 25.3014 40.0423 25.3278 40.6582C25.3542 41.2741 25.2141 41.8858 24.9222 42.4288V42.5288C21.0375 52.4995 17.6992 62.6744 14.9222 73.0086C13.1593 79.4826 11.9154 86.0868 11.2022 92.7585C10.7922 97.8985 10.9222 101.679 11.6022 104.319C12 106.305 12.7483 108.205 13.8122 109.929C14.4699 110.705 15.2712 111.346 16.1722 111.819C17.6002 112.47 19.1657 112.761 20.7322 112.669C23.6222 112.669 27.4522 110.939 32.4322 107.389C37.2022 103.989 42.0622 98.9285 46.8622 92.3385C49.5471 88.7759 51.9637 85.019 54.0922 81.0985C56.3355 77.0016 58.1967 72.7068 59.6522 68.2685C61.0749 64.0048 61.9388 59.5747 62.2222 55.0887C62.5019 50.8163 61.7616 46.5387 60.0622 42.6088C59.7744 42.0589 59.6299 41.4453 59.6422 40.8248C59.6544 40.2043 59.823 39.5969 60.1322 39.0588C60.4067 38.5862 60.743 38.1524 61.1322 37.7688L61.1822 37.6988C61.3042 37.5106 61.4378 37.3303 61.5822 37.1588C62.0365 36.666 62.5887 36.2735 63.2035 36.0066C63.8182 35.7397 64.482 35.6042 65.1522 35.6088C66.2661 35.6239 67.3443 36.0032 68.2222 36.6888C68.6814 36.9609 69.0991 37.2977 69.4622 37.6888C71.1973 38.9177 73.2662 39.5876 75.3922 39.6088C75.7265 39.6085 76.0604 39.5885 76.3922 39.5488C78.9817 39.2353 81.3605 37.9656 83.0622 35.9888C83.519 35.4503 84.0873 35.0175 84.728 34.7205C85.3686 34.4235 86.0661 34.2694 86.7722 34.2688C87.6957 34.2768 88.598 34.5466 89.3742 35.047C90.1504 35.5474 90.7686 36.2577 91.1572 37.0955C91.5457 37.9333 91.6885 38.8642 91.5691 39.7799C91.4496 40.6957 91.0727 41.5587 90.4822 42.2688C87.1695 46.1425 82.5153 48.6213 77.4522 49.2088ZM201.622 21.3687C202.292 21.5464 202.99 21.5901 203.677 21.4972C204.364 21.4042 205.025 21.1765 205.624 20.8271C206.222 20.4778 206.746 20.0135 207.164 19.4612C207.583 18.9089 207.888 18.2793 208.062 17.6087C208.564 15.7969 209.233 14.036 210.062 12.3487C210.711 11.0001 211.456 9.70002 212.292 8.45872C212.7 7.88615 212.99 7.23771 213.143 6.5516C213.297 5.8655 213.312 5.15558 213.187 4.46367C213.062 3.77176 212.8 3.11186 212.416 2.52281C212.032 1.93375 211.534 1.42747 210.952 1.03378C210.369 0.640082 209.714 0.366933 209.024 0.230418C208.334 0.0939032 207.624 0.0967827 206.936 0.238887C206.247 0.38099 205.594 0.659446 205.014 1.05785C204.435 1.45626 203.941 1.96656 203.562 2.55871C201.014 6.34079 199.115 10.5215 197.942 14.9287C197.763 15.5965 197.717 16.2932 197.807 16.9788C197.897 17.6644 198.122 18.3254 198.469 18.9238C198.816 19.5222 199.277 20.0462 199.827 20.4658C200.376 20.8854 201.004 21.1922 201.672 21.3687H201.622ZM167.482 62.9787C169.172 84.7187 154.062 113.189 128.862 120.919C124.629 122.336 120.205 123.102 115.742 123.189C110.941 123.267 106.21 122.029 102.062 119.609C92.2522 113.699 89.7222 102.979 88.7722 98.9485C84.0022 78.7085 96.7122 60.4288 102.402 53.5088C106.512 48.5088 121.402 32.3788 141.112 34.6088C144.582 35.0088 153.812 36.0588 160.622 44.3688C165.972 50.9188 167.062 58.1287 167.482 62.9787ZM156.812 63.8087C156.522 60.1087 155.752 55.3188 152.302 51.1088C148.242 46.1088 142.572 45.5088 139.852 45.1988C139.015 45.107 138.174 45.0603 137.332 45.0588C124.152 45.0588 113.552 56.6987 110.622 60.2587C105.942 65.9487 95.4622 80.8685 99.1322 96.4585C99.8622 99.5585 101.582 106.819 107.532 110.459C113.972 114.339 121.912 111.909 125.722 110.749V110.899V110.739C145.722 104.609 158.162 81.0587 156.812 63.8087Z" fill="#5DBCAF"/>
<path d="M203.677 21.4972C202.99 21.5901 202.292 21.5464 201.622 21.3687H201.672C201.004 21.1922 200.376 20.8854 199.827 20.4658C199.277 20.0462 198.816 19.5222 198.469 18.9238C198.122 18.3254 197.897 17.6644 197.807 16.9788C197.717 16.2932 197.763 15.5965 197.942 14.9287C199.115 10.5215 201.014 6.34079 203.562 2.55871C203.941 1.96656 204.435 1.45626 205.014 1.05785C205.594 0.659446 206.247 0.38099 206.936 0.238887C207.624 0.0967827 208.334 0.0939032 209.024 0.230418C209.714 0.366933 210.369 0.640082 210.952 1.03378C211.534 1.42747 212.032 1.93375 212.416 2.52281C212.8 3.11186 213.062 3.77176 213.187 4.46367C213.312 5.15558 213.297 5.8655 213.143 6.5516C212.99 7.23771 212.7 7.88615 212.292 8.45872C211.456 9.70002 210.711 11.0001 210.062 12.3487C209.233 14.036 208.564 15.7969 208.062 17.6087C207.888 18.2793 207.583 18.9089 207.164 19.4612C206.746 20.0135 206.222 20.4778 205.624 20.8271C205.025 21.1765 204.364 21.4042 203.677 21.4972Z" fill="#5DBCAF"/>
</svg>
